<svg id="Capa_1" data-name="Capa 1" xmlns="http://www.w3.org/2000/svg" viewBox="0 0 102.76 117.55"><title>bnt</title><path d="M4.21,57.79C4.24,30.13,24.68,8,50.45,5.48a51.3,51.3,0,0,1,56.48,49.33c.52,13.23-4.47,24.77-12.23,35.3C86,101.87,75.3,111.44,63.5,119.9c-5.08,3.65-10.22,3.92-15.38.28-14.79-10.44-27.87-22.55-37-38.42A51.79,51.79,0,0,1,4.21,57.79Zm35.9,21c1.53,0,3.07.07,4.6,0,2.73-.16,4.07-1.71,3.76-4.46a19.85,19.85,0,0,0-7.18-13.74c-4.6-3.79-10-4.11-15.56-4.31-8.6-.31-7.77,3-6.52,8.7a8.17,8.17,0,0,0,.3.87C22.36,74.49,29.26,78.84,40.11,78.83Zm31,0h2.15c10.59-.1,18.23-7,19.39-17.44.39-3.5-.83-4.93-4.39-5-2.25-.06-4.5,0-6.74,0A19.14,19.14,0,0,0,62.8,73.74c-.39,3.67.84,5,4.59,5.1C68.62,78.86,69.85,78.84,71.07,78.84Z" transform="translate(-4.21 -5.22)" style="fill:#47dd5f"/></svg>