<svg id="Capa_1" data-name="Capa 1" xmlns="http://www.w3.org/2000/svg" viewBox="0 0 178.7 107.54"><title>ufo2</title><path d="M99.25,116.35C80.53,116,60.91,114.12,42,107.43c-8.38-3-16.49-6.47-23.19-12.5-10-9-10.16-19.53-.24-28.7C26.47,59,36.23,55.12,46.29,52.1c2.71-.82,4.1-2,4.75-4.85C55.65,27.35,74.63,10.67,96.14,9c27.33-2.15,48.51,16.59,53.66,37.23.85,3.41,2.38,5.14,5.84,6.16C165,55.08,174,58.83,181.52,65.25c11.42,9.71,11.18,21.65-.61,30.92-10.85,8.54-23.7,12.53-36.82,15.6C129.75,115.12,115.11,116.21,99.25,116.35Zm2-44.8c11.48.22,23.45-1.74,34.33-8.52,2.41-1.51,3.46-3.14,3.15-6.06-1.43-13.86-8.21-24.22-20.38-30.7C94,13.3,64.15,30,62.15,57.49c-.2,2.73,1.18,4,3.2,5.3C76,69.76,87.87,71.63,101.29,71.55Zm-.65,17.86a6.6,6.6,0,0,0-6.93,6.67,6.91,6.91,0,0,0,6.66,7.09,7.19,7.19,0,0,0,7.19-7A6.7,6.7,0,0,0,100.64,89.41Zm53.83.11c4.12,0,6.75-2.76,6.72-6.89a6.49,6.49,0,0,0-6.9-6.73,6.67,6.67,0,0,0-6.79,6.92A6.54,6.54,0,0,0,154.47,89.52ZM53.59,82.84a6.6,6.6,0,0,0-6.72-6.94,6.8,6.8,0,0,0-7,6.72,6.71,6.71,0,0,0,6.81,6.91A6.48,6.48,0,0,0,53.59,82.84Z" transform="translate(-11.22 -8.8)" fill="#47dd5f"/></svg>